#N canvas 157 186 1510 798 12;
#X obj 405 234 inlet~;
#X obj 328 403 /~ 1.41421;
#X obj 575 325 cos~;
#X obj 644 325 cos~;
#X obj 652 281 +~ 0.75;
#X text 549 274 cos(azi);
#X text 718 289 sin(azi);
#X obj 801 326 cos~;
#X text 838 277 cos(elev);
#X text 979 297 sin(elev);
#X obj 934 320 cos~;
#X obj 940 275 +~ 0.75;
#X obj 550 406 *~;
#X obj 599 366 *~;
#X text 590 397 X = S*cos(a)cos(e);
#X obj 779 419 *~;
#X obj 795 379 *~;
#X text 816 410 Y = S*sin(a)cos(e);
#X obj 1019 414 *~;
#X text 1057 396 Z = S*sin(e);
#X obj 328 428 outlet~;
#X obj 550 431 outlet~;
#X obj 779 444 outlet~;
#X obj 1019 439 outlet~;
#X obj 671 218 inlet~;
#X obj 849 217 inlet~;
#X text 676 171 azimuth: 0-1 (from 0-2pi);
#X text 923 172 elevation: 0-1 (from 0-2pi);
#X text 23 37 encode mono signal;
#X text 19 10 pdkvfoa-enc;
#X text 18 105 inlets:signal \, azimuth(0-1) \, elevation(0-1);
#X text 21 132 outlets:W \, X \, Y \, Z;
#X text 686 121 0-1 instead of 0-2pi to keep with cos~ range;
#X text 357 375 W = S * 1/sqrt(2);
#X text 1373 13 derek kwan;
#X text 1399 39 pdkvfoa;
#X text 1388 90 gpl v 3;
#X text 1414 68 2017;
#X connect 0 0 1 0;
#X connect 0 0 12 0;
#X connect 0 0 15 0;
#X connect 0 0 18 0;
#X connect 1 0 20 0;
#X connect 2 0 13 0;
#X connect 3 0 16 0;
#X connect 4 0 3 0;
#X connect 7 0 13 1;
#X connect 7 0 16 1;
#X connect 10 0 18 1;
#X connect 11 0 10 0;
#X connect 12 0 21 0;
#X connect 13 0 12 1;
#X connect 15 0 22 0;
#X connect 16 0 15 1;
#X connect 18 0 23 0;
#X connect 24 0 2 0;
#X connect 24 0 4 0;
#X connect 25 0 11 0;
#X connect 25 0 7 0;
